<mxfile host="app.diagrams.net" modified="2024-05-29T23:03:04.168Z" agent="Mozilla/5.0 (Windows NT 10.0; Win64; x64) AppleWebKit/537.36 (KHTML, like Gecko) Chrome/125.0.0.0 Safari/537.36" etag="5cxw_dyaFaUWxTOf40EX" version="24.4.10" type="github">
  <diagram name="Page-1" id="2YBvvXClWsGukQMizWep">
    <mxGraphModel dx="1366" dy="1803" grid="1" gridSize="10" guides="1" tooltips="1" connect="1" arrows="1" fold="1" page="1" pageScale="1" pageWidth="850" pageHeight="1100" math="0" shadow="0">
      <root>
        <mxCell id="0" />
        <mxCell id="1" parent="0" />
        <mxCell id="VnX3BFoDX9NUagO3A515-1" value="&lt;p style=&quot;margin:0px;margin-top:4px;margin-left:5px;text-align:left;&quot;&gt;&lt;b&gt;sd&lt;/b&gt;&amp;nbsp;List Doctors&lt;/p&gt;" style="html=1;shape=mxgraph.sysml.package;overflow=fill;labelX=125.17;align=left;spacingLeft=5;verticalAlign=top;spacingTop=-3;" vertex="1" parent="1">
          <mxGeometry x="140" y="-1007" width="821" height="914" as="geometry" />
        </mxCell>
        <mxCell id="VnX3BFoDX9NUagO3A515-2" value="&lt;p style=&quot;margin:0px;margin-top:4px;margin-left:5px;text-align:left;&quot;&gt;&lt;b&gt;ALT&lt;/b&gt;&lt;/p&gt;" style="html=1;shape=mxgraph.sysml.package;overflow=fill;labelX=38.73;align=left;spacingLeft=5;verticalAlign=top;spacingTop=-3;" vertex="1" parent="1">
          <mxGeometry x="154" y="-755" width="795" height="651" as="geometry" />
        </mxCell>
        <mxCell id="VnX3BFoDX9NUagO3A515-3" value="&lt;p style=&quot;margin:0px;margin-top:4px;margin-left:5px;text-align:left;&quot;&gt;&lt;b&gt;OPT&lt;/b&gt;&lt;/p&gt;" style="html=1;shape=mxgraph.sysml.package;overflow=fill;labelX=38.73;align=left;spacingLeft=5;verticalAlign=top;spacingTop=-3;" vertex="1" parent="1">
          <mxGeometry x="159" y="-598" width="776" height="484" as="geometry" />
        </mxCell>
        <mxCell id="VnX3BFoDX9NUagO3A515-4" value="&lt;p style=&quot;margin:0px;margin-top:4px;margin-left:5px;text-align:left;&quot;&gt;&lt;b&gt;ALT&lt;/b&gt;&lt;/p&gt;" style="html=1;shape=mxgraph.sysml.package;overflow=fill;labelX=38.73;align=left;spacingLeft=5;verticalAlign=top;spacingTop=-3;" vertex="1" parent="1">
          <mxGeometry x="173" y="-364" width="752" height="236" as="geometry" />
        </mxCell>
        <mxCell id="VnX3BFoDX9NUagO3A515-5" value="&lt;b&gt;:List doctors Interface&lt;/b&gt;" style="shape=umlLifeline;perimeter=lifelinePerimeter;whiteSpace=wrap;html=1;container=1;dropTarget=0;collapsible=0;recursiveResize=0;outlineConnect=0;portConstraint=eastwest;newEdgeStyle={&quot;edgeStyle&quot;:&quot;elbowEdgeStyle&quot;,&quot;elbow&quot;:&quot;vertical&quot;,&quot;curved&quot;:0,&quot;rounded&quot;:0};size=36;" vertex="1" parent="1">
          <mxGeometry x="372" y="-935" width="197" height="810" as="geometry" />
        </mxCell>
        <mxCell id="VnX3BFoDX9NUagO3A515-6" value="" style="html=1;points=[[0,0,0,0,5],[0,1,0,0,-5],[1,0,0,0,5],[1,1,0,0,-5]];perimeter=orthogonalPerimeter;outlineConnect=0;targetShapes=umlLifeline;portConstraint=eastwest;newEdgeStyle={&quot;curved&quot;:0,&quot;rounded&quot;:0};" vertex="1" parent="VnX3BFoDX9NUagO3A515-5">
          <mxGeometry x="93.5" y="60" width="10" height="724" as="geometry" />
        </mxCell>
        <mxCell id="VnX3BFoDX9NUagO3A515-7" value="&lt;b&gt;: Doctors controller&lt;/b&gt;" style="shape=umlLifeline;perimeter=lifelinePerimeter;whiteSpace=wrap;html=1;container=1;dropTarget=0;collapsible=0;recursiveResize=0;outlineConnect=0;portConstraint=eastwest;newEdgeStyle={&quot;edgeStyle&quot;:&quot;elbowEdgeStyle&quot;,&quot;elbow&quot;:&quot;vertical&quot;,&quot;curved&quot;:0,&quot;rounded&quot;:0};" vertex="1" parent="1">
          <mxGeometry x="636" y="-935" width="154" height="806" as="geometry" />
        </mxCell>
        <mxCell id="VnX3BFoDX9NUagO3A515-8" value="" style="html=1;points=[[0,0,0,0,5],[0,1,0,0,-5],[1,0,0,0,5],[1,1,0,0,-5]];perimeter=orthogonalPerimeter;outlineConnect=0;targetShapes=umlLifeline;portConstraint=eastwest;newEdgeStyle={&quot;curved&quot;:0,&quot;rounded&quot;:0};" vertex="1" parent="VnX3BFoDX9NUagO3A515-7">
          <mxGeometry x="72" y="80" width="10" height="684" as="geometry" />
        </mxCell>
        <mxCell id="VnX3BFoDX9NUagO3A515-9" value="validateFilter(filter)" style="html=1;align=left;spacingLeft=2;endArrow=block;rounded=0;edgeStyle=orthogonalEdgeStyle;curved=0;rounded=0;strokeColor=default;verticalAlign=middle;fontFamily=Helvetica;fontSize=11;fontColor=default;labelBackgroundColor=default;" edge="1" parent="VnX3BFoDX9NUagO3A515-7" source="VnX3BFoDX9NUagO3A515-8" target="VnX3BFoDX9NUagO3A515-10">
          <mxGeometry relative="1" as="geometry">
            <mxPoint x="97" y="409" as="sourcePoint" />
            <Array as="points">
              <mxPoint x="119" y="464" />
              <mxPoint x="119" y="491" />
            </Array>
            <mxPoint x="119" y="455.0322580645161" as="targetPoint" />
          </mxGeometry>
        </mxCell>
        <mxCell id="VnX3BFoDX9NUagO3A515-10" value="" style="html=1;points=[[0,0,0,0,5],[0,1,0,0,-5],[1,0,0,0,5],[1,1,0,0,-5]];perimeter=orthogonalPerimeter;outlineConnect=0;targetShapes=umlLifeline;portConstraint=eastwest;newEdgeStyle={&quot;curved&quot;:0,&quot;rounded&quot;:0};fontFamily=Helvetica;fontSize=11;fontColor=default;labelBackgroundColor=default;" vertex="1" parent="VnX3BFoDX9NUagO3A515-7">
          <mxGeometry x="78" y="480" width="10" height="40" as="geometry" />
        </mxCell>
        <mxCell id="VnX3BFoDX9NUagO3A515-11" value="" style="html=1;align=left;spacingLeft=2;endArrow=block;rounded=0;edgeStyle=orthogonalEdgeStyle;curved=0;rounded=0;strokeColor=default;verticalAlign=middle;fontFamily=Helvetica;fontSize=11;fontColor=default;labelBackgroundColor=default;dashed=1;" edge="1" parent="VnX3BFoDX9NUagO3A515-7" source="VnX3BFoDX9NUagO3A515-10" target="VnX3BFoDX9NUagO3A515-8">
          <mxGeometry relative="1" as="geometry">
            <mxPoint x="99" y="534" as="sourcePoint" />
            <Array as="points">
              <mxPoint x="119" y="510" />
              <mxPoint x="119" y="540" />
            </Array>
            <mxPoint x="105" y="577" as="targetPoint" />
          </mxGeometry>
        </mxCell>
        <mxCell id="VnX3BFoDX9NUagO3A515-12" value="" style="shape=umlLifeline;perimeter=lifelinePerimeter;whiteSpace=wrap;html=1;container=1;dropTarget=0;collapsible=0;recursiveResize=0;outlineConnect=0;portConstraint=eastwest;newEdgeStyle={&quot;curved&quot;:0,&quot;rounded&quot;:0};participant=umlActor;" vertex="1" parent="1">
          <mxGeometry x="275" y="-932" width="20" height="806" as="geometry" />
        </mxCell>
        <mxCell id="VnX3BFoDX9NUagO3A515-13" value="User" style="text;html=1;align=center;verticalAlign=middle;resizable=0;points=[];autosize=1;strokeColor=none;fillColor=none;" vertex="1" parent="1">
          <mxGeometry x="261" y="-961" width="43" height="26" as="geometry" />
        </mxCell>
        <mxCell id="VnX3BFoDX9NUagO3A515-14" value="&lt;b&gt;: Doctor&lt;/b&gt;" style="shape=umlLifeline;perimeter=lifelinePerimeter;whiteSpace=wrap;html=1;container=1;dropTarget=0;collapsible=0;recursiveResize=0;outlineConnect=0;portConstraint=eastwest;newEdgeStyle={&quot;edgeStyle&quot;:&quot;elbowEdgeStyle&quot;,&quot;elbow&quot;:&quot;vertical&quot;,&quot;curved&quot;:0,&quot;rounded&quot;:0};" vertex="1" parent="1">
          <mxGeometry x="854" y="-935" width="88" height="807" as="geometry" />
        </mxCell>
        <mxCell id="VnX3BFoDX9NUagO3A515-15" value="" style="html=1;points=[[0,0,0,0,5],[0,1,0,0,-5],[1,0,0,0,5],[1,1,0,0,-5]];perimeter=orthogonalPerimeter;outlineConnect=0;targetShapes=umlLifeline;portConstraint=eastwest;newEdgeStyle={&quot;curved&quot;:0,&quot;rounded&quot;:0};" vertex="1" parent="VnX3BFoDX9NUagO3A515-14">
          <mxGeometry x="39" y="114" width="10" height="48" as="geometry" />
        </mxCell>
        <mxCell id="VnX3BFoDX9NUagO3A515-16" value="" style="html=1;points=[[0,0,0,0,5],[0,1,0,0,-5],[1,0,0,0,5],[1,1,0,0,-5]];perimeter=orthogonalPerimeter;outlineConnect=0;targetShapes=umlLifeline;portConstraint=eastwest;newEdgeStyle={&quot;curved&quot;:0,&quot;rounded&quot;:0};" vertex="1" parent="VnX3BFoDX9NUagO3A515-14">
          <mxGeometry x="39" y="697" width="10" height="48" as="geometry" />
        </mxCell>
        <mxCell id="VnX3BFoDX9NUagO3A515-17" style="rounded=0;orthogonalLoop=1;jettySize=auto;html=1;endArrow=open;endFill=0;" edge="1" parent="1" source="VnX3BFoDX9NUagO3A515-12" target="VnX3BFoDX9NUagO3A515-6">
          <mxGeometry relative="1" as="geometry">
            <mxPoint x="249.5" y="-862" as="sourcePoint" />
            <Array as="points">
              <mxPoint x="360" y="-865" />
            </Array>
          </mxGeometry>
        </mxCell>
        <mxCell id="VnX3BFoDX9NUagO3A515-18" value="clickButton (&#39;Doctors&#39;)" style="edgeLabel;html=1;align=center;verticalAlign=middle;resizable=0;points=[];" vertex="1" connectable="0" parent="VnX3BFoDX9NUagO3A515-17">
          <mxGeometry x="-0.1981" y="-1" relative="1" as="geometry">
            <mxPoint x="16" y="-10" as="offset" />
          </mxGeometry>
        </mxCell>
        <mxCell id="VnX3BFoDX9NUagO3A515-19" style="rounded=0;orthogonalLoop=1;jettySize=auto;html=1;endArrow=open;endFill=0;" edge="1" parent="1" source="VnX3BFoDX9NUagO3A515-6" target="VnX3BFoDX9NUagO3A515-8">
          <mxGeometry relative="1" as="geometry">
            <mxPoint x="480" y="-825" as="sourcePoint" />
            <Array as="points">
              <mxPoint x="553" y="-825" />
            </Array>
            <mxPoint x="666" y="-825" as="targetPoint" />
          </mxGeometry>
        </mxCell>
        <mxCell id="VnX3BFoDX9NUagO3A515-20" value="checkIfExistDoctors()" style="edgeLabel;html=1;align=center;verticalAlign=middle;resizable=0;points=[];" vertex="1" connectable="0" parent="VnX3BFoDX9NUagO3A515-19">
          <mxGeometry x="-0.1981" y="-1" relative="1" as="geometry">
            <mxPoint x="17" y="-9" as="offset" />
          </mxGeometry>
        </mxCell>
        <mxCell id="VnX3BFoDX9NUagO3A515-21" style="rounded=0;orthogonalLoop=1;jettySize=auto;html=1;endArrow=open;endFill=0;" edge="1" parent="1" source="VnX3BFoDX9NUagO3A515-8" target="VnX3BFoDX9NUagO3A515-15">
          <mxGeometry relative="1" as="geometry">
            <mxPoint x="673" y="-810" as="sourcePoint" />
            <Array as="points">
              <mxPoint x="756" y="-810" />
            </Array>
            <mxPoint x="893" y="-810" as="targetPoint" />
          </mxGeometry>
        </mxCell>
        <mxCell id="VnX3BFoDX9NUagO3A515-22" value="getDoctors()" style="edgeLabel;html=1;align=center;verticalAlign=middle;resizable=0;points=[];" vertex="1" connectable="0" parent="VnX3BFoDX9NUagO3A515-21">
          <mxGeometry x="-0.1981" y="-1" relative="1" as="geometry">
            <mxPoint x="8" y="-9" as="offset" />
          </mxGeometry>
        </mxCell>
        <mxCell id="VnX3BFoDX9NUagO3A515-23" style="rounded=0;orthogonalLoop=1;jettySize=auto;html=1;endArrow=open;endFill=0;dashed=1;" edge="1" parent="1" source="VnX3BFoDX9NUagO3A515-15" target="VnX3BFoDX9NUagO3A515-8">
          <mxGeometry relative="1" as="geometry">
            <mxPoint x="893" y="-781" as="sourcePoint" />
            <Array as="points">
              <mxPoint x="746" y="-781" />
            </Array>
            <mxPoint x="674" y="-781" as="targetPoint" />
          </mxGeometry>
        </mxCell>
        <mxCell id="VnX3BFoDX9NUagO3A515-24" value="return(doctors)" style="edgeLabel;html=1;align=center;verticalAlign=middle;resizable=0;points=[];" vertex="1" connectable="0" parent="VnX3BFoDX9NUagO3A515-23">
          <mxGeometry x="-0.1981" y="-1" relative="1" as="geometry">
            <mxPoint x="-34" y="-9" as="offset" />
          </mxGeometry>
        </mxCell>
        <mxCell id="VnX3BFoDX9NUagO3A515-25" value="&lt;b&gt;[No doctors]&lt;/b&gt;" style="text;html=1;align=center;verticalAlign=middle;resizable=0;points=[];autosize=1;strokeColor=none;fillColor=none;fontFamily=Helvetica;fontSize=11;fontColor=default;labelBackgroundColor=default;" vertex="1" parent="1">
          <mxGeometry x="159" y="-727" width="90" height="30" as="geometry" />
        </mxCell>
        <mxCell id="VnX3BFoDX9NUagO3A515-26" style="rounded=0;orthogonalLoop=1;jettySize=auto;html=1;endArrow=open;endFill=0;dashed=1;" edge="1" parent="1" source="VnX3BFoDX9NUagO3A515-8" target="VnX3BFoDX9NUagO3A515-6">
          <mxGeometry relative="1" as="geometry">
            <mxPoint x="666" y="-717" as="sourcePoint" />
            <Array as="points">
              <mxPoint x="559" y="-727" />
            </Array>
            <mxPoint x="480" y="-717" as="targetPoint" />
          </mxGeometry>
        </mxCell>
        <mxCell id="VnX3BFoDX9NUagO3A515-27" value="display(&#39;There are no doctors&#39;)" style="edgeLabel;html=1;align=center;verticalAlign=middle;resizable=0;points=[];fontFamily=Helvetica;fontSize=11;fontColor=default;labelBackgroundColor=default;" vertex="1" connectable="0" parent="VnX3BFoDX9NUagO3A515-26">
          <mxGeometry x="-0.0422" relative="1" as="geometry">
            <mxPoint x="-3" y="-9" as="offset" />
          </mxGeometry>
        </mxCell>
        <mxCell id="VnX3BFoDX9NUagO3A515-28" style="rounded=0;orthogonalLoop=1;jettySize=auto;html=1;endArrow=open;endFill=0;dashed=1;" edge="1" parent="1" source="VnX3BFoDX9NUagO3A515-6" target="VnX3BFoDX9NUagO3A515-12">
          <mxGeometry relative="1" as="geometry">
            <mxPoint x="469.4200000000001" y="-701" as="sourcePoint" />
            <Array as="points">
              <mxPoint x="368.34000000000015" y="-701" />
            </Array>
            <mxPoint x="262.00333333333356" y="-701" as="targetPoint" />
          </mxGeometry>
        </mxCell>
        <mxCell id="VnX3BFoDX9NUagO3A515-29" value="&#39;There are no doctors&#39;" style="edgeLabel;html=1;align=center;verticalAlign=middle;resizable=0;points=[];" vertex="1" connectable="0" parent="VnX3BFoDX9NUagO3A515-28">
          <mxGeometry x="-0.1981" y="-1" relative="1" as="geometry">
            <mxPoint x="-16" y="-8" as="offset" />
          </mxGeometry>
        </mxCell>
        <mxCell id="VnX3BFoDX9NUagO3A515-30" value="&lt;b&gt;[Has appointments]&lt;/b&gt;" style="text;html=1;align=center;verticalAlign=middle;resizable=0;points=[];autosize=1;strokeColor=none;fillColor=none;fontFamily=Helvetica;fontSize=11;fontColor=default;labelBackgroundColor=default;" vertex="1" parent="1">
          <mxGeometry x="146" y="-679" width="121" height="25" as="geometry" />
        </mxCell>
        <mxCell id="VnX3BFoDX9NUagO3A515-31" style="rounded=0;orthogonalLoop=1;jettySize=auto;html=1;endArrow=open;endFill=0;dashed=1;" edge="1" parent="1" source="VnX3BFoDX9NUagO3A515-8" target="VnX3BFoDX9NUagO3A515-6">
          <mxGeometry relative="1" as="geometry">
            <mxPoint x="714" y="-646" as="sourcePoint" />
            <mxPoint x="486" y="-646" as="targetPoint" />
            <Array as="points">
              <mxPoint x="579" y="-649" />
            </Array>
          </mxGeometry>
        </mxCell>
        <mxCell id="VnX3BFoDX9NUagO3A515-32" value="displayDoctors(doctors)" style="edgeLabel;html=1;align=center;verticalAlign=middle;resizable=0;points=[];fontFamily=Helvetica;fontSize=11;fontColor=default;labelBackgroundColor=default;" vertex="1" connectable="0" parent="VnX3BFoDX9NUagO3A515-31">
          <mxGeometry x="-0.0422" relative="1" as="geometry">
            <mxPoint x="-3" y="-9" as="offset" />
          </mxGeometry>
        </mxCell>
        <mxCell id="VnX3BFoDX9NUagO3A515-33" style="rounded=0;orthogonalLoop=1;jettySize=auto;html=1;strokeColor=default;align=center;verticalAlign=middle;fontFamily=Helvetica;fontSize=11;fontColor=default;labelBackgroundColor=default;endArrow=none;endFill=0;dashed=1;exitX=0.002;exitY=0.084;exitDx=0;exitDy=0;exitPerimeter=0;entryX=1;entryY=0.084;entryDx=0;entryDy=0;entryPerimeter=0;" edge="1" parent="1">
          <mxGeometry relative="1" as="geometry">
            <mxPoint x="150.99999999999991" y="-690.0000000000005" as="sourcePoint" />
            <mxPoint x="944.41" y="-690.0000000000005" as="targetPoint" />
          </mxGeometry>
        </mxCell>
        <mxCell id="VnX3BFoDX9NUagO3A515-34" style="rounded=0;orthogonalLoop=1;jettySize=auto;html=1;endArrow=open;endFill=0;dashed=1;" edge="1" parent="1" source="VnX3BFoDX9NUagO3A515-6" target="VnX3BFoDX9NUagO3A515-12">
          <mxGeometry relative="1" as="geometry">
            <mxPoint x="468.83" y="-618" as="sourcePoint" />
            <Array as="points">
              <mxPoint x="382.1700000000002" y="-618" />
            </Array>
            <mxPoint x="260.9966666666665" y="-618" as="targetPoint" />
          </mxGeometry>
        </mxCell>
        <mxCell id="VnX3BFoDX9NUagO3A515-35" value="doctors" style="edgeLabel;html=1;align=center;verticalAlign=middle;resizable=0;points=[];fontFamily=Helvetica;fontSize=11;fontColor=default;labelBackgroundColor=default;" vertex="1" connectable="0" parent="VnX3BFoDX9NUagO3A515-34">
          <mxGeometry x="0.1435" y="1" relative="1" as="geometry">
            <mxPoint x="5" y="-10" as="offset" />
          </mxGeometry>
        </mxCell>
        <mxCell id="VnX3BFoDX9NUagO3A515-36" value="&lt;b&gt;[User provides filters]&lt;/b&gt;" style="text;html=1;align=center;verticalAlign=middle;resizable=0;points=[];autosize=1;strokeColor=none;fillColor=none;fontFamily=Helvetica;fontSize=11;fontColor=default;labelBackgroundColor=default;" vertex="1" parent="1">
          <mxGeometry x="154" y="-570" width="132" height="25" as="geometry" />
        </mxCell>
        <mxCell id="VnX3BFoDX9NUagO3A515-37" style="rounded=0;orthogonalLoop=1;jettySize=auto;html=1;endArrow=open;endFill=0;" edge="1" parent="1" source="VnX3BFoDX9NUagO3A515-12" target="VnX3BFoDX9NUagO3A515-6">
          <mxGeometry relative="1" as="geometry">
            <mxPoint x="283" y="-538" as="sourcePoint" />
            <Array as="points">
              <mxPoint x="358" y="-538" />
            </Array>
            <mxPoint x="468" y="-538" as="targetPoint" />
          </mxGeometry>
        </mxCell>
        <mxCell id="VnX3BFoDX9NUagO3A515-38" value="clickButton (&#39;filter doctors&#39;)" style="edgeLabel;html=1;align=center;verticalAlign=middle;resizable=0;points=[];" vertex="1" connectable="0" parent="VnX3BFoDX9NUagO3A515-37">
          <mxGeometry x="-0.1981" y="-1" relative="1" as="geometry">
            <mxPoint x="16" y="-10" as="offset" />
          </mxGeometry>
        </mxCell>
        <mxCell id="VnX3BFoDX9NUagO3A515-39" style="rounded=0;orthogonalLoop=1;jettySize=auto;html=1;endArrow=open;endFill=0;" edge="1" parent="1" source="VnX3BFoDX9NUagO3A515-6" target="VnX3BFoDX9NUagO3A515-8">
          <mxGeometry relative="1" as="geometry">
            <mxPoint x="476" y="-518" as="sourcePoint" />
            <Array as="points">
              <mxPoint x="549" y="-518" />
            </Array>
            <mxPoint x="704" y="-518" as="targetPoint" />
          </mxGeometry>
        </mxCell>
        <mxCell id="VnX3BFoDX9NUagO3A515-40" value="getDoctorsByFilter(filter)" style="edgeLabel;html=1;align=center;verticalAlign=middle;resizable=0;points=[];" vertex="1" connectable="0" parent="VnX3BFoDX9NUagO3A515-39">
          <mxGeometry x="-0.1981" y="-1" relative="1" as="geometry">
            <mxPoint x="17" y="-9" as="offset" />
          </mxGeometry>
        </mxCell>
        <mxCell id="VnX3BFoDX9NUagO3A515-41" value="&lt;b&gt;[Invalid filters]&lt;/b&gt;" style="text;html=1;align=center;verticalAlign=middle;resizable=0;points=[];autosize=1;strokeColor=none;fillColor=none;fontFamily=Helvetica;fontSize=11;fontColor=default;labelBackgroundColor=default;" vertex="1" parent="1">
          <mxGeometry x="168" y="-338" width="93" height="25" as="geometry" />
        </mxCell>
        <mxCell id="VnX3BFoDX9NUagO3A515-42" style="rounded=0;orthogonalLoop=1;jettySize=auto;html=1;strokeColor=default;align=center;verticalAlign=middle;fontFamily=Helvetica;fontSize=11;fontColor=default;labelBackgroundColor=default;endArrow=none;endFill=0;dashed=1;" edge="1" parent="1">
          <mxGeometry relative="1" as="geometry">
            <mxPoint x="172" y="-279" as="sourcePoint" />
            <mxPoint x="923" y="-279" as="targetPoint" />
          </mxGeometry>
        </mxCell>
        <mxCell id="VnX3BFoDX9NUagO3A515-43" value="&lt;b&gt;[Valid filters]&lt;/b&gt;" style="text;html=1;align=center;verticalAlign=middle;resizable=0;points=[];autosize=1;strokeColor=none;fillColor=none;fontFamily=Helvetica;fontSize=11;fontColor=default;labelBackgroundColor=default;" vertex="1" parent="1">
          <mxGeometry x="168" y="-277" width="84" height="25" as="geometry" />
        </mxCell>
        <mxCell id="VnX3BFoDX9NUagO3A515-44" style="rounded=0;orthogonalLoop=1;jettySize=auto;html=1;endArrow=open;endFill=0;dashed=1;" edge="1" parent="1" source="VnX3BFoDX9NUagO3A515-8" target="VnX3BFoDX9NUagO3A515-6">
          <mxGeometry relative="1" as="geometry">
            <mxPoint x="713" y="-323" as="sourcePoint" />
            <Array as="points">
              <mxPoint x="562" y="-329" />
            </Array>
            <mxPoint x="483" y="-329" as="targetPoint" />
          </mxGeometry>
        </mxCell>
        <mxCell id="VnX3BFoDX9NUagO3A515-45" value="display(&#39;Error in filter&#39;)" style="edgeLabel;html=1;align=center;verticalAlign=middle;resizable=0;points=[];fontFamily=Helvetica;fontSize=11;fontColor=default;labelBackgroundColor=default;" vertex="1" connectable="0" parent="VnX3BFoDX9NUagO3A515-44">
          <mxGeometry x="-0.0422" relative="1" as="geometry">
            <mxPoint x="-3" y="-9" as="offset" />
          </mxGeometry>
        </mxCell>
        <mxCell id="VnX3BFoDX9NUagO3A515-46" style="rounded=0;orthogonalLoop=1;jettySize=auto;html=1;endArrow=open;endFill=0;dashed=1;" edge="1" parent="1" source="VnX3BFoDX9NUagO3A515-6" target="VnX3BFoDX9NUagO3A515-12">
          <mxGeometry relative="1" as="geometry">
            <mxPoint x="525" y="-311" as="sourcePoint" />
            <Array as="points">
              <mxPoint x="379" y="-311" />
            </Array>
            <mxPoint x="297" y="-311" as="targetPoint" />
          </mxGeometry>
        </mxCell>
        <mxCell id="VnX3BFoDX9NUagO3A515-47" value="&#39;Error in filter&#39;" style="edgeLabel;html=1;align=center;verticalAlign=middle;resizable=0;points=[];fontFamily=Helvetica;fontSize=11;fontColor=default;labelBackgroundColor=default;" vertex="1" connectable="0" parent="VnX3BFoDX9NUagO3A515-46">
          <mxGeometry x="-0.0422" relative="1" as="geometry">
            <mxPoint x="-3" y="-9" as="offset" />
          </mxGeometry>
        </mxCell>
        <mxCell id="VnX3BFoDX9NUagO3A515-48" style="rounded=0;orthogonalLoop=1;jettySize=auto;html=1;endArrow=open;endFill=0;" edge="1" parent="1" source="VnX3BFoDX9NUagO3A515-8" target="VnX3BFoDX9NUagO3A515-16">
          <mxGeometry relative="1" as="geometry">
            <mxPoint x="688" y="-228" as="sourcePoint" />
            <Array as="points">
              <mxPoint x="757" y="-228" />
            </Array>
            <mxPoint x="893" y="-228" as="targetPoint" />
          </mxGeometry>
        </mxCell>
        <mxCell id="VnX3BFoDX9NUagO3A515-49" value="getDoctorsByFilter(filter)" style="edgeLabel;html=1;align=center;verticalAlign=middle;resizable=0;points=[];" vertex="1" connectable="0" parent="VnX3BFoDX9NUagO3A515-48">
          <mxGeometry x="-0.1981" y="-1" relative="1" as="geometry">
            <mxPoint x="17" y="-9" as="offset" />
          </mxGeometry>
        </mxCell>
        <mxCell id="VnX3BFoDX9NUagO3A515-50" style="rounded=0;orthogonalLoop=1;jettySize=auto;html=1;endArrow=open;endFill=0;dashed=1;" edge="1" parent="1" source="VnX3BFoDX9NUagO3A515-16" target="VnX3BFoDX9NUagO3A515-8">
          <mxGeometry relative="1" as="geometry">
            <mxPoint x="893" y="-197" as="sourcePoint" />
            <Array as="points">
              <mxPoint x="745" y="-197" />
            </Array>
            <mxPoint x="718" y="-197" as="targetPoint" />
          </mxGeometry>
        </mxCell>
        <mxCell id="VnX3BFoDX9NUagO3A515-51" value="return(filteredDoctors)" style="edgeLabel;html=1;align=center;verticalAlign=middle;resizable=0;points=[];" vertex="1" connectable="0" parent="VnX3BFoDX9NUagO3A515-50">
          <mxGeometry x="-0.1981" y="-1" relative="1" as="geometry">
            <mxPoint x="-20" y="-9" as="offset" />
          </mxGeometry>
        </mxCell>
        <mxCell id="VnX3BFoDX9NUagO3A515-52" style="rounded=0;orthogonalLoop=1;jettySize=auto;html=1;endArrow=open;endFill=0;dashed=1;" edge="1" parent="1" source="VnX3BFoDX9NUagO3A515-8" target="VnX3BFoDX9NUagO3A515-6">
          <mxGeometry relative="1" as="geometry">
            <mxPoint x="713" y="-176" as="sourcePoint" />
            <mxPoint x="485" y="-176" as="targetPoint" />
            <Array as="points">
              <mxPoint x="584" y="-176" />
            </Array>
          </mxGeometry>
        </mxCell>
        <mxCell id="VnX3BFoDX9NUagO3A515-53" value="displayDoctors(filteredDoctors)" style="edgeLabel;html=1;align=center;verticalAlign=middle;resizable=0;points=[];fontFamily=Helvetica;fontSize=11;fontColor=default;labelBackgroundColor=default;" vertex="1" connectable="0" parent="VnX3BFoDX9NUagO3A515-52">
          <mxGeometry x="-0.0422" relative="1" as="geometry">
            <mxPoint x="-3" y="-9" as="offset" />
          </mxGeometry>
        </mxCell>
        <mxCell id="VnX3BFoDX9NUagO3A515-54" style="rounded=0;orthogonalLoop=1;jettySize=auto;html=1;endArrow=open;endFill=0;dashed=1;" edge="1" parent="1" source="VnX3BFoDX9NUagO3A515-6" target="VnX3BFoDX9NUagO3A515-12">
          <mxGeometry relative="1" as="geometry">
            <mxPoint x="460" y="-156" as="sourcePoint" />
            <Array as="points">
              <mxPoint x="372.1700000000002" y="-156" />
            </Array>
            <mxPoint x="275" y="-156" as="targetPoint" />
          </mxGeometry>
        </mxCell>
        <mxCell id="VnX3BFoDX9NUagO3A515-55" value="filteredDoctors" style="edgeLabel;html=1;align=center;verticalAlign=middle;resizable=0;points=[];fontFamily=Helvetica;fontSize=11;fontColor=default;labelBackgroundColor=default;" vertex="1" connectable="0" parent="VnX3BFoDX9NUagO3A515-54">
          <mxGeometry x="0.1435" y="1" relative="1" as="geometry">
            <mxPoint x="5" y="-10" as="offset" />
          </mxGeometry>
        </mxCell>
      </root>
    </mxGraphModel>
  </diagram>
</mxfile>
